<?xml version="1.0" encoding="utf-8"?>
<!-- Generator: Adobe Illustrator 22.1.0, SVG Export Plug-In . SVG Version: 6.00 Build 0)  -->
<svg version="1.1" id="Livello_1" xmlns="http://www.w3.org/2000/svg" xmlns:xlink="http://www.w3.org/1999/xlink" x="0px" y="0px"
	 viewBox="0 0 80 80" style="enable-background:new 0 0 80 80;" xml:space="preserve">
<style type="text/css">
	.st0{fill:#275B57;}
	.st1{fill:#FFFFFF;}
</style>
<rect x="-2.4" y="-3.5" class="st0" width="86.7" height="83.5"/>
<path class="st1" d="M53.2,67.3L53.2,67.3c4.4,0,7.9-2.3,7.9-5.1c0-2.8-3.6-5.1-7.9-5.1h-1.9c-2,0-2.1,0.1-4,2
	c-1.8,1.8-1.8,1.8-3.5,1.8H40H19.2c-0.2,0-0.4,0.2-0.4,0.4v1.9c0,0.2,0.2,0.4,0.4,0.4H40h3.8l0,0c1.7,0,1.7,0,3.5,1.8
	c1.9,1.9,2,2,4,2l0,0l0,0L53.2,67.3L53.2,67.3z M19.6,62.8v-1.1h20v1.1H19.6z M43.8,62.8L43.8,62.8h-3.4v-1.1h3.4c2,0,2.1-0.1,4-2
	c1.8-1.8,1.8-1.8,3.5-1.8h1.9c4,0,7.2,1.9,7.2,4.3s-3.2,4.3-7.2,4.3l0,0l0,0h-1.9c-1.7,0-1.7,0-3.5-1.8
	C45.9,62.9,45.8,62.8,43.8,62.8z"/>
<path class="st1" d="M21.8,15.4c-1,1-1,2.5,0,3.5L34.9,32l0.1,0.1c0.1,0,0.1,0,0.2,0c2.8,0,2.8,0,4.1,1.3l1.4,1.4l16.1,16.1
	c0.2,0.2,0.4,0.2,0.6,0l1.4-1.4c0.2-0.2,0.2-0.4,0-0.6L42.8,33L25.3,15.4C24.3,14.5,22.7,14.5,21.8,15.4z M35.3,31.3l-13-13
	c-0.6-0.6-0.6-1.7,0-2.3c0.6-0.6,1.7-0.6,2.3,0l17.2,17.2L41,34.1L39.8,33C38.3,31.3,38.2,31.3,35.3,31.3z M58,49.3l-0.9,0.9
	L41.6,34.7l0.9-0.9L58,49.3z"/>
<g>
	<path class="st1" d="M59.8,20.1c0.2-0.2,0.2-0.5,0-0.7s-0.5-0.2-0.7,0L49,29.6c-3.1,0-3.3,0-5,1.8l0,0l-3,2.9l-1-1l2.9-2.9
		c1.7-1.7,1.8-1.9,1.8-5l10.2-10.2c0.2-0.2,0.2-0.5,0-0.7s-0.5-0.2-0.7,0L44,24.8l-0.1,0.1c0,0,0,0.1,0,0.2c0,3.1,0,3.1-1.5,4.6
		L39.1,33L23.2,48.9c-0.2,0.2-0.2,0.5,0,0.7l1.6,1.6c0.2,0.2,0.5,0.2,0.7,0l15.9-15.9l3.3-3.3l0,0c1.5-1.5,1.5-1.5,4.6-1.5
		c0.1,0,0.1,0,0.2,0c0.1,0,0.1-0.1,0.1-0.1L59.8,20.1z M25.1,50.2l-1-1l15.3-15.3l1,1L25.1,50.2z"/>
	<path class="st1" d="M49.3,23.3c0.2,0.2,0.5,0.2,0.7,0l6.5-6.5c0.2-0.2,0.2-0.5,0-0.7c-0.2-0.2-0.5-0.2-0.7,0l-6.5,6.5
		C49.2,22.9,49.2,23.2,49.3,23.3z"/>
	<path class="st1" d="M51,25c0.2,0.2,0.5,0.2,0.7,0l6.5-6.5c0.2-0.2,0.2-0.5,0-0.7c-0.2-0.2-0.5-0.2-0.7,0L51,24.3
		C50.8,24.5,50.8,24.8,51,25z"/>
</g>
</svg>
