<?xml version="1.0" encoding="utf-8"?>
<!-- Generator: Adobe Illustrator 22.1.0, SVG Export Plug-In . SVG Version: 6.00 Build 0)  -->
<svg version="1.1" id="Livello_1" xmlns="http://www.w3.org/2000/svg" xmlns:xlink="http://www.w3.org/1999/xlink" x="0px" y="0px"
	 viewBox="0 0 80 80" style="enable-background:new 0 0 80 80;" xml:space="preserve">
<style type="text/css">
	.st0{fill:#2A638C;}
	.st1{fill:#FFFFFF;}
</style>
<rect x="-3.5" y="-2.4" class="st0" width="85.1" height="83.4"/>
<g id="Livello_2_1_">
</g>
<g id="Livello_1_1_">
	<path class="st1" d="M55.8,15.9H24.2c-2.1,0-3.8,1.7-3.8,3.8v40.4c0,2.1,1.7,3.8,3.8,3.8h31.6c2.1,0,3.8-1.7,3.8-3.8V19.8
		C59.7,17.7,57.9,15.9,55.8,15.9z M21.5,19c0-1.1,0.9-2,2-2h20.1v8.5H21.5V19z M58.5,61.1c0,1.1-0.9,2-2,2h-33c-1.1,0-2-0.9-2-2
		V44.6l8.2-0.1c0.4,3.6,2.6,6.7,5.7,8.2c0,0,0.1,0,0.1,0.1c1.3,0.6,2.7,1,4.2,1c0.9,0,1.7-0.1,2.5-0.3l0,0l0.4-0.1l0,0
		c3.9-1.1,6.7-4.6,7.1-8.7l8.6,0.1v16.3C58.3,61.1,58.5,61.1,58.5,61.1z M46.3,43.1c-0.8-0.9-1.8-1.9-3.6-1.9c-0.2,0-0.3,0-0.4,0
		c-0.1,0-0.2,0-0.2,0c-1.5,0.2-2.3,1.1-3,1.9c-0.2,0.2-0.4,0.4-0.5,0.5c0,0,0,0.1-0.1,0.1c-0.5,0.4-1,0.8-1.7,0.8
		c-0.3,0-0.4,0-0.6-0.1l0,0c-0.6-0.2-1-0.6-1.6-1.3c-0.4-0.4-0.7-0.8-1.1-1.1l0,0c-0.1-0.1-0.1-0.1-0.2-0.2
		c-0.4-0.3-0.9-0.5-1.4-0.6c1.1-3.4,4.2-5.8,7.9-5.8c4.6,0,8.3,3.7,8.3,8.3c0,0.3,0,0.5,0,0.7C47.4,44.2,47,43.8,46.3,43.1z
		 M47.7,46.2c-0.3,1-0.8,1.9-1.4,2.6v-3.3C46.8,45.8,47.2,46,47.7,46.2z M41.4,51.9C41,52,40.5,52,40.1,52.1v-7.3
		c0.1-0.2,0.3-0.3,0.4-0.4c0.4-0.4,0.6-0.7,0.9-0.9L41.4,51.9L41.4,51.9z M43.2,42.9c0.6,0.1,1,0.4,1.4,0.9v6.6
		c-0.4,0.4-0.9,0.6-1.4,0.8V42.9z M38.3,45.9v6c-0.5-0.1-1.1-0.3-1.6-0.4v-5.2h0.1C37.4,46.2,37.9,46.2,38.3,45.9z M35,45.7v4.7
		c-0.4-0.4-0.9-0.7-1.2-1.1v-4.6C34.1,45.1,34.5,45.5,35,45.7z M32,43.1v3.5c-0.4-0.9-0.5-1.9-0.5-2.9c0-0.3,0-0.5,0-0.7
		C31.7,42.9,31.9,42.9,32,43.1z M58.5,42.6l-8.6,0.1c-0.4-5.1-4.8-9.2-10.1-9.2s-9.6,4.1-10.1,9.2l-8.2-0.1V27.5h36.9L58.5,42.6
		L58.5,42.6z M58.5,25.5H45.6V17h10.9c1.1,0,2,0.9,2,2V25.5z"/>
	<g>
		<path class="st1" d="M26.6,23.6c-1.3,0-2.4-1.1-2.4-2.4s1.1-2.4,2.4-2.4S29,20,29,21.2S28,23.6,26.6,23.6z M26.6,20.8
			c-0.2,0-0.4,0.2-0.4,0.4s0.2,0.4,0.4,0.4s0.4-0.2,0.4-0.4S26.9,20.8,26.6,20.8z"/>
	</g>
	<g>
		<path class="st1" d="M42.7,53.3c-0.2,0.1-0.3,0.1-0.4,0.1L42.7,53.3z"/>
	</g>
	<path class="st1" d="M34,18.8c-1.3,0-2.4,1.1-2.4,2.4s1.1,2.4,2.4,2.4s2.4-1.1,2.4-2.4S35.3,18.8,34,18.8z M34.7,21.2h-0.2
		c0,0.2-0.2,0.4-0.4,0.4s-0.4-0.2-0.4-0.4h-0.3v-0.6h1.3C34.7,20.6,34.7,21.2,34.7,21.2z"/>
</g>
</svg>
