<?xml version="1.0" encoding="utf-8"?>
<!-- Generator: Adobe Illustrator 22.1.0, SVG Export Plug-In . SVG Version: 6.00 Build 0)  -->
<svg version="1.1" id="Livello_1" xmlns="http://www.w3.org/2000/svg" xmlns:xlink="http://www.w3.org/1999/xlink" x="0px" y="0px"
	 viewBox="0 0 80 80" style="enable-background:new 0 0 80 80;" xml:space="preserve">
<style type="text/css">
	.st0{fill:#FFBC00;}
	.st1{fill:#FFFFFF;}
</style>
<rect x="-1.4" y="-1.4" class="st0" width="82.8" height="82.8"/>
<path class="st1" d="M59,12.6l-31.4,2.8c-1.3,0.1-2.4,1.2-2.4,2.6v11c0,1.4,1.1,2.5,2.4,2.6L51,33.2l-2,16.1
	c-0.2,1.7,0.3,3.3,1.4,4.6c0.8,0.9,1.9,1.6,3.2,1.9c-2.3,5.1-6.8,4.9-13.6,4.1c-6.6-0.8-14.2-1.7-19.3,5.9c-0.3,0.5-0.1,1.2,0.4,1.5
	s1.1,0.2,1.4-0.3c4.3-6.4,10.8-5.6,17.2-4.9c6.5,0.7,13.2,1.5,16.2-6.1c2.5-0.3,4.6-2.1,5.2-4.5L65.9,32c0.4-0.3,0.8-0.6,1.2-1
	c2.1-2,3.4-4.8,3.3-7.8c0-5.9-4.7-10.6-10.6-10.6C59.6,12.6,59.3,12.6,59,12.6z M58.9,50.8c-0.5,1.8-2,3-3.9,2.9
	c-1.2,0-2.3-0.5-3-1.4c-0.7-0.8-1-1.8-0.9-2.9l2-16.2l6,0.4l0,0h0.6c1.2,0,2.3-0.2,3.4-0.6L58.9,50.8z M65.6,29.3
	c-1.7,1.6-3.9,2.4-6.3,2.3l-31.5-2.2c-0.2,0-0.3-0.2-0.3-0.4V18c0-0.2,0.2-0.4,0.4-0.4l31.4-2.8c4.6-0.3,8.7,3.1,9,7.8
	C68.4,25.1,67.4,27.6,65.6,29.3L65.6,29.3z"/>
<path class="st1" d="M59.7,19.4c-2.1,0-3.9,1.7-3.9,3.9s1.7,3.9,3.9,3.9c2.1,0,3.9-1.7,3.9-3.9l0,0C63.6,21.1,61.8,19.4,59.7,19.4z
	 M59.7,25.6c-1.3,0-2.3-1-2.3-2.3s1-2.3,2.3-2.3s2.3,1,2.3,2.3l0,0C62,24.5,61,25.6,59.7,25.6L59.7,25.6L59.7,25.6z"/>
<path class="st1" d="M37.4,20.3h-4.9c-0.5,0-0.9,0.4-0.9,0.9s0.4,0.9,0.9,0.9h4.9c0.5,0,0.9-0.4,0.9-0.9
	C38.3,20.7,37.9,20.3,37.4,20.3z"/>
<path class="st1" d="M37.4,25h-4.9c-0.5,0-0.9,0.4-0.9,0.9s0.4,0.9,0.9,0.9h4.9c0.5,0,0.9-0.4,0.9-0.9S37.9,25,37.4,25z"/>
<path class="st1" d="M14.5,19.7c0.7-0.5,1.7-0.2,2.8,0.1c0.7,0.2,1.4,0.4,2.1,0.4c0.6,0,1.1-0.2,1.6-0.5c0.3-0.2,0.4-0.7,0.2-1.1
	c-0.2-0.4-0.6-0.5-0.9-0.3c-0.7,0.5-1.7,0.2-2.7-0.1c-1.2-0.4-2.6-0.8-3.8,0.1c-0.3,0.2-0.4,0.7-0.2,1.1
	C13.8,19.8,14.2,19.9,14.5,19.7L14.5,19.7z"/>
<path class="st1" d="M8.9,24.8c1.4-0.6,3.5-0.3,5.6,0.1c1.4,0.3,2.8,0.4,4.3,0.5c1.1,0,2.2-0.2,3.2-0.6c0.6-0.3,0.8-0.9,0.4-1.3
	s-1.1-0.6-1.7-0.3c-1.4,0.6-3.4,0.2-5.5-0.1c-2.5-0.4-5.2-0.9-7.6,0.1c-0.6,0.3-0.8,0.9-0.4,1.3C7.5,24.9,8.3,25,8.9,24.8L8.9,24.8z
	"/>
<path class="st1" d="M21.5,28c-0.3-0.4-0.8-0.6-1.2-0.3c-1,0.6-2.4,0.2-3.8-0.1c-1.7-0.4-3.6-0.9-5.3,0.1c-0.4,0.3-0.6,0.8-0.3,1.3
	c0.3,0.4,0.8,0.5,1.2,0.3c1-0.6,2.4-0.3,3.9,0.1c1,0.3,1.9,0.4,2.9,0.5c0.8,0,1.5-0.2,2.2-0.6C21.6,29,21.7,28.5,21.5,28
	C21.5,28.1,21.5,28.1,21.5,28z"/>
</svg>
