<?xml version="1.0" encoding="utf-8"?>
<!-- Generator: Adobe Illustrator 22.1.0, SVG Export Plug-In . SVG Version: 6.00 Build 0)  -->
<svg version="1.1" id="Livello_1" xmlns="http://www.w3.org/2000/svg" xmlns:xlink="http://www.w3.org/1999/xlink" x="0px" y="0px"
	 viewBox="0 0 80 80" style="enable-background:new 0 0 80 80;" xml:space="preserve">
<style type="text/css">
	.st0{fill:#124356;}
	.st1{fill:#FFFFFF;}
</style>
<rect x="-2.8" y="-3.8" class="st0" width="87" height="83.8"/>
<g>
	<path class="st1" d="M55.5,20.1H24.4c-1.9,0-3.5,1.6-3.5,3.5v32.9c0,1.9,1.6,3.5,3.5,3.5h31.1c1.9,0,3.5-1.6,3.5-3.5V23.5
		C59,21.7,57.5,20.1,55.5,20.1z M23.4,21h33.1c0.8,0,1.5,0.7,1.5,1.5v8.7H22v-8.7C22,21.7,22.6,21,23.4,21z M56.5,59H23.4
		c-0.8,0-1.5-0.7-1.5-1.5V33.4h36v24.1C58,58.3,57.4,59,56.5,59z"/>
	<path class="st1" d="M26.7,28c1.1,0,2-0.9,2-2s-0.9-2-2-2s-2,0.9-2,2S25.6,28,26.7,28z"/>
	<path class="st1" d="M37.2,27.2c0.7,0,1.3-0.6,1.3-1.3c0-0.7-0.6-1.3-1.3-1.3s-1.3,0.6-1.3,1.3C35.9,26.7,36.4,27.2,37.2,27.2z"/>
	<path class="st1" d="M42.8,27.2c0.7,0,1.3-0.6,1.3-1.3c0-0.7-0.6-1.3-1.3-1.3s-1.3,0.6-1.3,1.3C41.6,26.7,42.1,27.2,42.8,27.2z"/>
	<path class="st1" d="M53.3,28c1.1,0,2-0.9,2-2s-0.9-2-2-2s-2,0.9-2,2S52.1,28,53.3,28z"/>
	<path class="st1" d="M51.5,36.6h-23c-1.5,0-2.7,1.3-2.7,2.9V53c0,1.6,1.2,2.9,2.7,2.9h23c1.5,0,2.7-1.3,2.7-2.9V39.5
		C54.2,37.9,53,36.6,51.5,36.6z M52,53c0,0.4-0.2,0.7-0.5,0.7h-23c-0.3,0-0.5-0.3-0.5-0.7V39.5c0-0.4,0.2-0.7,0.5-0.7h23
		c0.3,0,0.5,0.3,0.5,0.7V53z"/>
	<path class="st1" d="M47.5,41.8h-15c-0.6,0-1.1,0.5-1.1,1.1s0.5,1.1,1.1,1.1h15c0.6,0,1.1-0.5,1.1-1.1S48.1,41.8,47.5,41.8z"/>
</g>
</svg>
