<?xml version="1.0" encoding="utf-8"?>
<!-- Generator: Adobe Illustrator 22.1.0, SVG Export Plug-In . SVG Version: 6.00 Build 0)  -->
<svg version="1.1" id="Livello_1" xmlns="http://www.w3.org/2000/svg" xmlns:xlink="http://www.w3.org/1999/xlink" x="0px" y="0px"
	 viewBox="0 0 80 80" style="enable-background:new 0 0 80 80;" xml:space="preserve">
<style type="text/css">
	.st0{fill:#7C2741;}
	.st1{fill:#FFFFFF;}
</style>
<rect x="-7" y="-4.4" class="st0" width="90.9" height="85.6"/>
<path class="st1" d="M67.3,48.6l-26.4-13v-3.8c0-0.5,0.3-0.9,0.8-1.1c2.1-0.8,3.3-3.1,2.8-5.3c-0.4-1.7-1.8-3.2-3.6-3.6
	c-1.4-0.3-2.8,0.1-3.9,0.9c-1.1,0.9-1.7,2.2-1.7,3.7c0,0.5,0.4,0.9,0.9,0.9s0.9-0.4,0.9-0.9c0-0.8,0.4-1.6,1.1-2.2
	c0.6-0.5,1.6-0.7,2.4-0.5c1.1,0.2,1.9,1.1,2.1,2.2c0.3,1.4-0.5,2.7-1.7,3.3c-1.2,0.4-2,1.5-2,2.8v3.8L12.6,48.6
	c-1.7,0.8-2.8,2.7-2.8,4.6c0,2.8,2.3,5.1,5.1,5.1h50.2c2.8,0,5.1-2.3,5.1-5.1C70.2,51.2,69.1,49.4,67.3,48.6z M65,56.4H15
	c-1.7,0-3.2-1.2-3.4-2.8c-0.2-1.5,0.6-2.8,1.8-3.4l25.7-12.7c0.5-0.3,1.2-0.3,1.7,0l25.7,12.7c1.1,0.5,1.8,1.7,1.8,2.9
	C68.3,55,66.9,56.4,65,56.4z"/>
</svg>
