<?xml version="1.0" encoding="utf-8"?>
<!-- Generator: Adobe Illustrator 22.1.0, SVG Export Plug-In . SVG Version: 6.00 Build 0)  -->
<svg version="1.1" xmlns="http://www.w3.org/2000/svg" xmlns:xlink="http://www.w3.org/1999/xlink" x="0px" y="0px"
	 viewBox="0 0 80 80" style="enable-background:new 0 0 80 80;" xml:space="preserve">
<style type="text/css">
	.st0{fill:#381A5B;}
	.st1{fill:#FFFFFF;}
</style>
<g id="Livello_2">
</g>
<g id="Livello_1">
	<rect x="-0.9" y="-0.9" class="st0" width="81.8" height="81.8"/>
	<g>
		<path class="st1" d="M64.9,19.8H15.1c-2.1,0-3.9,1.7-3.9,3.9v28.3c0,1.7,1.1,3.1,2.6,3.7v2.6c0,1.1,0.9,1.9,1.9,1.9H18
			c1.1,0,1.9-0.9,1.9-1.9v-2.4h40.8v2.5c0,1.1,0.9,1.9,1.9,1.9h2.2c1.1,0,1.9-0.9,1.9-1.9v-3c1.2-0.7,2-1.9,2-3.4V23.7
			C68.8,21.5,67.1,19.8,64.9,19.8z M67.5,51.9c0,0.7-0.3,1.2-0.7,1.7c-0.2,0.2-0.4,0.4-0.6,0.5c-0.2,0.1-0.4,0.2-0.6,0.3
			c-0.2,0.1-0.4,0.1-0.6,0.1H62h-0.6h-0.6H19.9h-0.6h-0.6h-3.5h0c-0.2,0-0.4,0-0.6-0.1c-0.2-0.1-0.4-0.1-0.6-0.3
			c-0.8-0.4-1.3-1.3-1.3-2.2V23.7c0-1.4,1.2-2.6,2.6-2.6h49.8c1.4,0,2.6,1.2,2.6,2.6V51.9z M65.5,58.3c0,0.4-0.3,0.6-0.6,0.6h-2.2
			c-0.4,0-0.6-0.3-0.6-0.6v-2.5h2.9c0.2,0,0.4,0,0.6-0.1V58.3z M18.6,58.2c0,0.4-0.3,0.6-0.6,0.6h-2.2c-0.4,0-0.6-0.3-0.6-0.6v-2.4
			h3.5V58.2z"/>
		<path class="st1" d="M49.4,23.6H19c-1.7,0-3.2,1.4-3.2,3.2v22c0,0.8,0.3,1.5,0.8,2.1c0.2,0.3,0.5,0.5,0.8,0.6
			c0.4,0.2,0.9,0.4,1.5,0.4c0,0,0,0,0.1,0h0.7h29.7c1.7,0,3.2-1.4,3.2-3.2v-22C52.6,25.1,51.2,23.6,49.4,23.6z M51.3,48.8
			c0,1-0.8,1.9-1.9,1.9H19c-1,0-1.9-0.8-1.9-1.9v-22c0-1,0.8-1.9,1.9-1.9h30.4c1,0,1.9,0.8,1.9,1.9V48.8z"/>
		<path class="st1" d="M60.2,31.1c1.8,0,3.3-1.5,3.3-3.3c0-1.8-1.5-3.3-3.3-3.3c-1.8,0-3.3,1.5-3.3,3.3
			C56.9,29.6,58.4,31.1,60.2,31.1z M60.2,25.7c1.1,0,2.1,0.9,2.1,2.1s-0.9,2.1-2.1,2.1c-1.1,0-2.1-0.9-2.1-2.1
			C58.2,26.6,59.1,25.7,60.2,25.7z"/>
		<path class="st1" d="M60.2,40.5c1.8,0,3.3-1.5,3.3-3.3c0-1.8-1.5-3.3-3.3-3.3c-1.8,0-3.3,1.5-3.3,3.3C56.9,39,58.4,40.5,60.2,40.5
			z M60.2,35.1c1.1,0,2.1,0.9,2.1,2.1c0,1.1-0.9,2.1-2.1,2.1c-1.1,0-2.1-0.9-2.1-2.1C58.2,36,59.1,35.1,60.2,35.1z"/>
		<path class="st1" d="M63.3,44.7h-6.1c-1.1,0-1.9,0.9-1.9,1.9v2.6c0,1.1,0.9,1.9,1.9,1.9h4.7h1.4c0.3,0,0.5-0.1,0.8-0.2
			c0.7-0.3,1.2-1,1.2-1.8v-2.6C65.2,45.5,64.4,44.7,63.3,44.7z M63.9,49.2c0,0.4-0.3,0.6-0.6,0.6h-6.1c-0.4,0-0.6-0.3-0.6-0.6v-2.6
			c0-0.4,0.3-0.6,0.6-0.6h6.1c0.4,0,0.6,0.3,0.6,0.6V49.2z"/>
		<path class="st1" d="M40.8,29.7c-0.2-0.3-0.6-0.4-0.9-0.2L21,41c-0.3,0.2-0.4,0.6-0.2,0.9c0.1,0.2,0.3,0.3,0.6,0.3
			c0.1,0,0.2,0,0.3-0.1l18.9-11.5C40.8,30.5,40.9,30.1,40.8,29.7z"/>
		<path class="st1" d="M44.3,32.3c-0.2-0.3-0.6-0.4-0.9-0.2L24.5,43.6c-0.3,0.2-0.4,0.6-0.2,0.9c0.1,0.2,0.3,0.3,0.6,0.3
			c0.1,0,0.2,0,0.3-0.1l18.9-11.5C44.4,33,44.5,32.6,44.3,32.3z"/>
		<path class="st1" d="M47,34.7L28.1,46.2c-0.3,0.2-0.4,0.6-0.2,0.9c0.1,0.2,0.3,0.3,0.6,0.3c0.1,0,0.2,0,0.3-0.1l18.9-11.5
			c0.3-0.2,0.4-0.6,0.2-0.9C47.7,34.6,47.3,34.5,47,34.7z"/>
	</g>
</g>
</svg>
