<?xml version="1.0" encoding="utf-8"?>
<!-- Generator: Adobe Illustrator 22.1.0, SVG Export Plug-In . SVG Version: 6.00 Build 0)  -->
<svg version="1.1" id="Livello_1" xmlns="http://www.w3.org/2000/svg" xmlns:xlink="http://www.w3.org/1999/xlink" x="0px" y="0px"
	 viewBox="0 0 80 80" style="enable-background:new 0 0 80 80;" xml:space="preserve">
<style type="text/css">
	.st0{fill:#DE5B49;}
	.st1{fill:#FFFFFF;}
</style>
<rect x="-8.3" y="-6.1" class="st0" width="94.4" height="89.5"/>
<g>
	<path class="st1" d="M45.4,48.4V23.1c0-3-2.4-6-5.4-6s-5.4,3.1-5.4,6v25.4c-1.8,1.6-2.9,3.9-2.9,6.2c0,4.5,3.7,8.3,8.3,8.3
		s8.3-3.7,8.3-8.3C48.3,52.2,47.3,50,45.4,48.4z M40,62c-3.7,0-6.8-3.1-6.8-6.8c0-2.1,1-4,2.6-5.4l0.4-0.3V37.4H39c0.5,0,1-0.4,1-1
		c0-0.5-0.4-0.9-1-0.9h-2.9v-3.8H39c0.5,0,1-0.4,1-1s-0.4-1-1-1h-2.9v-3.8H39c0.5,0,1-0.4,1-1s-0.4-1-1-1h-2.9v-1.8
		c0-2.1,1.7-3.8,3.8-3.8s3.8,1.7,3.8,3.8v27.3l0.4,0.3c1.6,1.3,2.6,3.2,2.6,5.4C46.8,59,43.7,62,40,62z"/>
	<path class="st1" d="M41.2,51.1v-7.6c0-0.6-0.5-1.2-1.2-1.2s-1.2,0.5-1.2,1.2v7.6c-1.4,0.5-2.4,1.8-2.4,3.4c0,2,1.6,3.6,3.6,3.6
		c2,0,3.6-1.6,3.6-3.6C43.6,52.8,42.6,51.6,41.2,51.1z"/>
</g>
</svg>
