<?xml version="1.0" encoding="utf-8"?>
<!-- Generator: Adobe Illustrator 22.1.0, SVG Export Plug-In . SVG Version: 6.00 Build 0)  -->
<svg version="1.1" id="Livello_1" xmlns="http://www.w3.org/2000/svg" xmlns:xlink="http://www.w3.org/1999/xlink" x="0px" y="0px"
	 viewBox="0 0 80 80" style="enable-background:new 0 0 80 80;" xml:space="preserve">
<style type="text/css">
	.st0{fill:#5A4156;}
	.st1{fill:#FFFFFF;}
</style>
<rect x="-2.6" y="-3.7" class="st0" width="83.4" height="85.1"/>
<g id="Livello_2_1_">
</g>
<g id="Livello_1_1_">
	<g>
		<path class="st1" d="M27.2,45.9c-0.4,0-0.6-0.3-0.6-0.6V31.1c0-0.4,0.3-0.6,0.6-0.6c0.4,0,0.6,0.3,0.6,0.6v14.2
			C27.9,45.6,27.6,45.9,27.2,45.9z"/>
	</g>
	<g>
		<path class="st1" d="M27.2,28.9c-0.4,0-0.6-0.3-0.6-0.6v-3.9c0-0.4,0.3-0.6,0.6-0.6c0.4,0,0.6,0.3,0.6,0.6v3.9
			C27.9,28.6,27.6,28.9,27.2,28.9z"/>
	</g>
	<g>
		<path class="st1" d="M59.9,56.7h-7.1c-0.3,0-0.6-0.2-0.6-0.6V21.8c0-3.4,1.8-6,4.2-6s4.2,2.6,4.2,6v34.4
			C60.5,56.4,60.2,56.7,59.9,56.7z M53.4,55.6h6V21.8c0-2.6-1.4-4.8-3-4.8s-3,2.3-3,4.8V55.6L53.4,55.6z"/>
	</g>
	<g>
		<path class="st1" d="M52.8,64.3H22.6c-0.3,0-0.6-0.2-0.6-0.6v-42c0-3.4,1.8-6,4.2-6h30.2c0.3,0,0.6,0.2,0.6,0.6
			c0,0.4-0.2,0.6-0.6,0.6c-1.5,0-2.8,1.9-3,4.3c0,0.1,0,0.1,0,0.2v42.5C53.4,64.1,53.1,64.3,52.8,64.3z M23.2,63.2h29.1V21.1
			c0-0.1,0-0.2,0.1-0.2c0.2-1.7,0.8-3.1,1.7-4.1H26.2c-1.7,0-3,2.3-3,4.8C23.2,21.8,23.2,63.2,23.2,63.2z"/>
	</g>
	<g>
		<path class="st1" d="M22.6,21.6h-5.8c-0.3,0-0.6-0.2-0.6-0.6s0.2-0.6,0.6-0.6h5.8c0.3,0,0.6,0.2,0.6,0.6
			C23.2,21.4,22.9,21.6,22.6,21.6z"/>
	</g>
	<g>
		<path class="st1" d="M63.3,21.6H52.8c-0.3,0-0.6-0.2-0.6-0.6s0.2-0.6,0.6-0.6h10.4c0.3,0,0.6,0.2,0.6,0.6
			C63.9,21.4,63.6,21.6,63.3,21.6z"/>
	</g>
</g>
</svg>
