<svg id="Livello_1" data-name="Livello 1" xmlns="http://www.w3.org/2000/svg" viewBox="0 0 377.31 377.31"><defs><style>.cls-1{fill:#dbf2c4;}.cls-2{fill:#eabd00;}</style></defs><title>Tavola disegno 2 copia</title><path class="cls-1" d="M208.74,127.53V233.6q0,15.06-7.6,22.65t-22.65,7.6H155.2q-15,0-22.65-7.6T125,233.6V203.22H155.2V233.6a14.41,14.41,0,0,0,4.51,10.62,15.13,15.13,0,0,0,21.41,0,14.44,14.44,0,0,0,4.47-10.62V127.53Z"/><path class="cls-2" d="M205.62,194.35v30.36a46.79,46.79,0,0,1-2,14.52,23.83,23.83,0,0,1-6.38,10.09,25.43,25.43,0,0,1-9.59,5.55,49.21,49.21,0,0,1-14.34,1.88c-5,0-12.31-.59-16.08-1.78a26,26,0,0,1-9.86-5.65A23,23,0,0,1,141,239.1a47.66,47.66,0,0,1-1.95-14.39v-45.4h10.85v46.16a40,40,0,0,0,.91,9.3,18.22,18.22,0,0,0,3,6.65,14.84,14.84,0,0,0,6.57,5,26.83,26.83,0,0,0,10,1.65,26.4,26.4,0,0,0,9.94-1.68,14.74,14.74,0,0,0,6.55-5,18.33,18.33,0,0,0,3-6.47,41.43,41.43,0,0,0,.91-9.73V194.35m0,0h14.74"/><path d="M157.2,255.25a26.38,26.38,0,0,1-10-5.72,23.4,23.4,0,0,1-6.47-10.34,48.26,48.26,0,0,1-2-14.48V179h11.41v46.45a40.59,40.59,0,0,0,.89,9.23,18,18,0,0,0,3,6.54,14.63,14.63,0,0,0,6.45,4.93,26.74,26.74,0,0,0,9.88,1.63,26.3,26.3,0,0,0,9.84-1.66,14.46,14.46,0,0,0,6.43-4.9,18.11,18.11,0,0,0,3-6.37,40.82,40.82,0,0,0,.9-9.65V194.06h15.3v30.65a47.43,47.43,0,0,1-2,14.61,24.33,24.33,0,0,1-6.46,10.21,25.81,25.81,0,0,1-9.7,5.61,49.79,49.79,0,0,1-14.42,1.9C168.35,257,161,256.44,157.2,255.25Zm34-60.61v30.58a41.61,41.61,0,0,1-.91,9.8,18.73,18.73,0,0,1-3.09,6.57,15.1,15.1,0,0,1-6.67,5.09,26.76,26.76,0,0,1-10,1.7,27.16,27.16,0,0,1-10.08-1.67,15.23,15.23,0,0,1-6.69-5.11,18.83,18.83,0,0,1-3.09-6.76,40.6,40.6,0,0,1-.92-9.37V179.6H139.37v45.11A47.76,47.76,0,0,0,141.3,239a22.87,22.87,0,0,0,6.3,10.09,25.85,25.85,0,0,0,9.76,5.59c3.73,1.18,11,1.77,16,1.77a49.05,49.05,0,0,0,14.26-1.87,25,25,0,0,0,9.48-5.49,23.53,23.53,0,0,0,6.31-10,46.81,46.81,0,0,0,1.93-14.42V194.64Z"/><path class="cls-1" d="M170.55,376l-1.77-.36c-.6-.13-1.19-.25-1.77-.39a26.81,26.81,0,0,1-9.24-4.17,29.18,29.18,0,0,1-7.05-7.18c-1.72-2.44-3.3-5-4.84-7.53s-3-5.17-4.52-7.75q-3.42-5.89-6.81-11.82t-6.66-11.9a52.32,52.32,0,0,0-12.82-15.56,57.09,57.09,0,0,0-17.72-9.63c-3.42-1.17-6.82-2.4-10.21-3.66L77,292.29a45.68,45.68,0,0,1-19.63-13.38,53.67,53.67,0,0,1-10.58-21.28,111.62,111.62,0,0,1-2.6-13.23c-.6-4.45-1-8.93-1.2-13.43,0-.61-.08-1.21-.14-1.81s-.11-1.2-.17-1.81V208.66c0-.26.1-.52.14-.78a5.46,5.46,0,0,0,.09-.79c.06-3.67.15-7.35.21-11s.13-7.35.13-11a108.3,108.3,0,0,1,.95-14.55,81.62,81.62,0,0,1,3.18-14.21,75.22,75.22,0,0,1,8.29-17.93A57.75,57.75,0,0,1,69,123.78c1.36-1.06,2.67-2.18,4-3.35s2.52-2.37,3.75-3.58a22.4,22.4,0,0,0,3.9-5,21.09,21.09,0,0,0,2.23-6,6.79,6.79,0,0,0,0-3.11A5.65,5.65,0,0,0,81.21,100l-1.74-1.66-1.78-1.63A42,42,0,0,1,67.5,83a46.54,46.54,0,0,1-4-16.52A64.33,64.33,0,0,1,66.39,42.1,70.57,70.57,0,0,1,78.13,20.47a54.06,54.06,0,0,1,11.43-11A45.21,45.21,0,0,1,104,2.68c1.15-.3,2.31-.53,3.48-.74s2.34-.41,3.5-.63h6.14c1,.18,2,.34,2.93.51s1.95.35,2.92.57a49.69,49.69,0,0,1,10.27,3.55,67.05,67.05,0,0,1,9.39,5.42c3.41,2.33,6.76,4.75,10.09,7.21s6.62,4.95,9.92,7.43,6.72,5,10.21,7.29a82.88,82.88,0,0,0,10.92,6.17,56.15,56.15,0,0,0,7.66,2.78c2.61.76,5.25,1.39,7.89,2.06a53.37,53.37,0,0,1,15.12,6.14,41.62,41.62,0,0,1,12,11.08A61.36,61.36,0,0,1,232.59,72a77.44,77.44,0,0,1,4.18,11.41q3,10.56,5.81,21.15c1.89,7.06,3.75,14.13,5.63,21.2,1.55,5.87,3,11.77,4.62,17.63a173.9,173.9,0,0,0,5.61,17.32,101.62,101.62,0,0,0,45.13,52.32c2.44,1.41,4.9,2.8,7.34,4.2s4.88,2.82,7.29,4.29a43.89,43.89,0,0,1,5.88,4.3,36.15,36.15,0,0,1,5,5.34,29.7,29.7,0,0,1,3.45,5.72,22.78,22.78,0,0,1,1.88,6.42,3.37,3.37,0,0,0,.12.48c.06.16.11.32.16.48v4.38c-.18.76-.34,1.52-.51,2.27s-.35,1.51-.57,2.25A30.79,30.79,0,0,1,330,261a50.94,50.94,0,0,1-5.28,6.77,84.27,84.27,0,0,1-7.93,7.54c-2.78,2.35-5.66,4.58-8.55,6.83q-14.37,11.16-28.73,22.35L250.8,326.89c-7.36,5.75-14.68,11.55-22,17.33s-14.67,11.56-22.06,17.27a94.31,94.31,0,0,1-10.67,7.23A62.07,62.07,0,0,1,184.27,374c-1.38.44-2.79.78-4.2,1.09s-2.85.59-4.26.93h-5.26ZM49,205.89h-.74c.12,4.91.21,9.82.32,14.74s.24,9.82.46,14.72a93.06,93.06,0,0,0,4,23.37,46.3,46.3,0,0,0,8.82,16.69,37.74,37.74,0,0,0,15.51,10.75q5.4,2.07,10.83,4.12c3.61,1.35,7.24,2.67,10.89,3.93a63.21,63.21,0,0,1,19.51,10.58,57.5,57.5,0,0,1,14.16,17.08q3.45,6.25,7,12.47T147,346.74c1.33,2.31,2.66,4.64,4,6.93s2.81,4.55,4.33,6.74a24.46,24.46,0,0,0,5.87,6,20.66,20.66,0,0,0,7.77,3.34,22.3,22.3,0,0,0,7.63.21,35.41,35.41,0,0,0,7.37-2A63.86,63.86,0,0,0,194,363.16a85.29,85.29,0,0,0,9.19-6.29q12.45-9.67,24.81-19.46T252.8,317.9Q265.39,308,278,298.23t25.21-19.65c1.69-1.31,3.39-2.61,5.08-3.93s3.37-2.64,5-4a72.63,72.63,0,0,0,7.09-6.71,43.05,43.05,0,0,0,5.76-7.89,19,19,0,0,0,2.65-10.75A19.53,19.53,0,0,0,324.68,235a30.78,30.78,0,0,0-4.52-4.87,39.7,39.7,0,0,0-5.37-3.89c-2.35-1.43-4.73-2.8-7.11-4.15s-4.78-2.71-7.16-4.09a111.27,111.27,0,0,1-30.16-25.21,105,105,0,0,1-18.82-34.4c-2.36-7.14-4.36-14.4-6.28-21.68s-3.76-14.59-5.78-21.85q-2.41-8.65-4.88-17.32t-5.07-17.26a41,41,0,0,0-2-5.21c-.79-1.7-1.66-3.37-2.52-5a37.58,37.58,0,0,0-11.49-13.38,42.72,42.72,0,0,0-16.18-6.85,77.92,77.92,0,0,1-18-6.17,97.29,97.29,0,0,1-16.12-10l-4.07-3.08c-1.36-1-2.71-2.07-4-3.11-3.49-2.69-7-5.39-10.56-7.92a102.5,102.5,0,0,0-11.21-7,53,53,0,0,0-8.76-3.76,33.76,33.76,0,0,0-9.38-1.65,34.92,34.92,0,0,0-14.39,2.56,39.32,39.32,0,0,0-12.14,8A62.33,62.33,0,0,0,73.27,39.93a60.93,60.93,0,0,0-4,26.7A38.59,38.59,0,0,0,72.91,81,36.85,36.85,0,0,0,82,92.83c.62.55,1.24,1.1,1.84,1.67s1.19,1.15,1.76,1.75A11.38,11.38,0,0,1,88.37,101a12.06,12.06,0,0,1,.18,5.5,26.64,26.64,0,0,1-2,6.56,21.44,21.44,0,0,1-3.78,5.67c-1.51,1.63-3.13,3.18-4.77,4.7s-3.3,3-4.91,4.57-3.45,3.16-5.16,4.76a40.62,40.62,0,0,0-4.74,5.09,66.35,66.35,0,0,0-10.62,21,85.53,85.53,0,0,0-3.47,23.3C49,186.06,49,190,49,194S49,201.93,49,205.89Z"/></svg>