<?xml version="1.0" encoding="utf-8"?>
<!-- Generator: Adobe Illustrator 22.1.0, SVG Export Plug-In . SVG Version: 6.00 Build 0)  -->
<svg version="1.1"
	 id="Livello_1" xmlns:cc="http://creativecommons.org/ns#" xmlns:dc="http://purl.org/dc/elements/1.1/" xmlns:inkscape="http://www.inkscape.org/namespaces/inkscape" xmlns:rdf="http://www.w3.org/1999/02/22-rdf-syntax-ns#" xmlns:sodipodi="http://sodipodi.sourceforge.net/DTD/sodipodi-0.dtd" xmlns:svg="http://www.w3.org/2000/svg"
	 xmlns="http://www.w3.org/2000/svg" xmlns:xlink="http://www.w3.org/1999/xlink" x="0px" y="0px" viewBox="0 0 78 56"
	 style="enable-background:new 0 0 78 56;" xml:space="preserve">
<style type="text/css">
	.st0{fill:#DBF2C4;}
</style>
<g transform="translate(0,-952.36218)">
	<path class="st0" d="M6,952.4c-0.8,0-1.6,0.2-2.3,0.4l33.2,31.7c1.4,1.4,2.6,1.3,4.1,0l33.3-31.6c-0.7-0.3-1.5-0.4-2.3-0.4L6,952.4
		L6,952.4z M0.1,957.6c0,0.3-0.1,0.5-0.1,0.8v44c0,3.3,2.7,6,6,6h66c3.3,0,6-2.7,6-6v-44c0-0.3,0-0.5-0.1-0.8l-32.8,31.2
		c-3.4,3.3-8.9,3.3-12.4,0L0.1,957.6L0.1,957.6z"/>
</g>
</svg>
